<svg id="visual" viewBox="0 0 900 600" width="900" height="600" xmlns="http://www.w3.org/2000/svg" xmlns:xlink="http://www.w3.org/1999/xlink" version="1.1"><rect x="0" y="0" width="900" height="600" fill="#ffffff"></rect><defs><linearGradient id="grad1_0" x1="33.3%" y1="0%" x2="100%" y2="100%"><stop offset="20%" stop-color="#3cb4fb" stop-opacity="1"></stop><stop offset="80%" stop-color="#3cb4fb" stop-opacity="1"></stop></linearGradient></defs><defs><linearGradient id="grad1_1" x1="33.3%" y1="0%" x2="100%" y2="100%"><stop offset="20%" stop-color="#3cb4fb" stop-opacity="1"></stop><stop offset="80%" stop-color="#69befc" stop-opacity="1"></stop></linearGradient></defs><defs><linearGradient id="grad1_2" x1="33.3%" y1="0%" x2="100%" y2="100%"><stop offset="20%" stop-color="#89c9fd" stop-opacity="1"></stop><stop offset="80%" stop-color="#69befc" stop-opacity="1"></stop></linearGradient></defs><defs><linearGradient id="grad1_3" x1="33.3%" y1="0%" x2="100%" y2="100%"><stop offset="20%" stop-color="#89c9fd" stop-opacity="1"></stop><stop offset="80%" stop-color="#a4d3fd" stop-opacity="1"></stop></linearGradient></defs><defs><linearGradient id="grad1_4" x1="33.3%" y1="0%" x2="100%" y2="100%"><stop offset="20%" stop-color="#bcdefe" stop-opacity="1"></stop><stop offset="80%" stop-color="#a4d3fd" stop-opacity="1"></stop></linearGradient></defs><defs><linearGradient id="grad1_5" x1="33.3%" y1="0%" x2="100%" y2="100%"><stop offset="20%" stop-color="#bcdefe" stop-opacity="1"></stop><stop offset="80%" stop-color="#d3e9fe" stop-opacity="1"></stop></linearGradient></defs><defs><linearGradient id="grad1_6" x1="33.3%" y1="0%" x2="100%" y2="100%"><stop offset="20%" stop-color="#eaf4ff" stop-opacity="1"></stop><stop offset="80%" stop-color="#d3e9fe" stop-opacity="1"></stop></linearGradient></defs><defs><linearGradient id="grad1_7" x1="33.3%" y1="0%" x2="100%" y2="100%"><stop offset="20%" stop-color="#eaf4ff" stop-opacity="1"></stop><stop offset="80%" stop-color="#ffffff" stop-opacity="1"></stop></linearGradient></defs><defs><linearGradient id="grad2_0" x1="0%" y1="0%" x2="66.7%" y2="100%"><stop offset="20%" stop-color="#3cb4fb" stop-opacity="1"></stop><stop offset="80%" stop-color="#3cb4fb" stop-opacity="1"></stop></linearGradient></defs><defs><linearGradient id="grad2_1" x1="0%" y1="0%" x2="66.7%" y2="100%"><stop offset="20%" stop-color="#69befc" stop-opacity="1"></stop><stop offset="80%" stop-color="#3cb4fb" stop-opacity="1"></stop></linearGradient></defs><defs><linearGradient id="grad2_2" x1="0%" y1="0%" x2="66.7%" y2="100%"><stop offset="20%" stop-color="#69befc" stop-opacity="1"></stop><stop offset="80%" stop-color="#89c9fd" stop-opacity="1"></stop></linearGradient></defs><defs><linearGradient id="grad2_3" x1="0%" y1="0%" x2="66.7%" y2="100%"><stop offset="20%" stop-color="#a4d3fd" stop-opacity="1"></stop><stop offset="80%" stop-color="#89c9fd" stop-opacity="1"></stop></linearGradient></defs><defs><linearGradient id="grad2_4" x1="0%" y1="0%" x2="66.7%" y2="100%"><stop offset="20%" stop-color="#a4d3fd" stop-opacity="1"></stop><stop offset="80%" stop-color="#bcdefe" stop-opacity="1"></stop></linearGradient></defs><defs><linearGradient id="grad2_5" x1="0%" y1="0%" x2="66.7%" y2="100%"><stop offset="20%" stop-color="#d3e9fe" stop-opacity="1"></stop><stop offset="80%" stop-color="#bcdefe" stop-opacity="1"></stop></linearGradient></defs><defs><linearGradient id="grad2_6" x1="0%" y1="0%" x2="66.7%" y2="100%"><stop offset="20%" stop-color="#d3e9fe" stop-opacity="1"></stop><stop offset="80%" stop-color="#eaf4ff" stop-opacity="1"></stop></linearGradient></defs><defs><linearGradient id="grad2_7" x1="0%" y1="0%" x2="66.7%" y2="100%"><stop offset="20%" stop-color="#ffffff" stop-opacity="1"></stop><stop offset="80%" stop-color="#eaf4ff" stop-opacity="1"></stop></linearGradient></defs><g transform="translate(900, 0)"><path d="M0 421C-74.3 410.8 -148.5 400.6 -211.5 366.3C-274.5 332 -326.2 273.6 -361.1 208.5C-396.1 143.4 -414.4 71.7 -432.7 0L0 0Z" fill="#f4f9ff"></path><path d="M0 368.4C-65 359.5 -130 350.6 -185.1 320.5C-240.2 290.5 -285.4 239.4 -316 182.4C-346.6 125.5 -362.6 62.7 -378.6 0L0 0Z" fill="#dfeeff"></path><path d="M0 315.8C-55.7 308.1 -111.4 300.5 -158.6 274.7C-205.9 249 -244.6 205.2 -270.8 156.4C-297.1 107.6 -310.8 53.8 -324.5 0L0 0Z" fill="#c8e4fe"></path><path d="M0 263.1C-46.4 256.8 -92.8 250.4 -132.2 229C-171.5 207.5 -203.8 171 -225.7 130.3C-247.6 89.6 -259 44.8 -270.4 0L0 0Z" fill="#b0d9fe"></path><path d="M0 210.5C-37.1 205.4 -74.3 200.3 -105.7 183.2C-137.2 166 -163.1 136.8 -180.6 104.3C-198.1 71.7 -207.2 35.9 -216.3 0L0 0Z" fill="#97cefd"></path><path d="M0 157.9C-27.8 154.1 -55.7 150.2 -79.3 137.4C-102.9 124.5 -122.3 102.6 -135.4 78.2C-148.5 53.8 -155.4 26.9 -162.2 0L0 0Z" fill="#7ac4fc"></path><path d="M0 105.3C-18.6 102.7 -37.1 100.2 -52.9 91.6C-68.6 83 -81.5 68.4 -90.3 52.1C-99 35.9 -103.6 17.9 -108.2 0L0 0Z" fill="#55b9fb"></path><path d="M0 52.6C-9.3 51.4 -18.6 50.1 -26.4 45.8C-34.3 41.5 -40.8 34.2 -45.1 26.1C-49.5 17.9 -51.8 9 -54.1 0L0 0Z" fill="#3cb4fb"></path></g><g transform="translate(0, 600)"><path d="M0 -424C70.2 -408.3 140.4 -392.6 208 -360.3C275.6 -328 340.5 -279.1 374.7 -216.3C408.9 -153.5 412.5 -76.8 416 0L0 0Z" fill="#f4f9ff"></path><path d="M0 -371C61.4 -357.2 122.9 -343.5 182 -315.2C241.1 -287 297.9 -244.2 327.9 -189.3C357.8 -134.3 360.9 -67.2 364 0L0 0Z" fill="#dfeeff"></path><path d="M0 -318C52.7 -306.2 105.3 -294.4 156 -270.2C206.7 -246 255.4 -209.4 281 -162.2C306.7 -115.1 309.3 -57.6 312 0L0 0Z" fill="#c8e4fe"></path><path d="M0 -265C43.9 -255.2 87.8 -245.3 130 -225.2C172.2 -205 212.8 -174.5 234.2 -135.2C255.6 -96 257.8 -48 260 0L0 0Z" fill="#b0d9fe"></path><path d="M0 -212C35.1 -204.1 70.2 -196.3 104 -180.1C137.8 -164 170.2 -139.6 187.3 -108.2C204.5 -76.8 206.2 -38.4 208 0L0 0Z" fill="#97cefd"></path><path d="M0 -159C26.3 -153.1 52.7 -147.2 78 -135.1C103.3 -123 127.7 -104.7 140.5 -81.1C153.3 -57.6 154.7 -28.8 156 0L0 0Z" fill="#7ac4fc"></path><path d="M0 -106C17.6 -102.1 35.1 -98.1 52 -90.1C68.9 -82 85.1 -69.8 93.7 -54.1C102.2 -38.4 103.1 -19.2 104 0L0 0Z" fill="#55b9fb"></path><path d="M0 -53C8.8 -51 17.6 -49.1 26 -45C34.4 -41 42.6 -34.9 46.8 -27C51.1 -19.2 51.6 -9.6 52 0L0 0Z" fill="#3cb4fb"></path></g></svg>